<?xml version="1.0" encoding="UTF-8"?>
<!-- Created with Inkscape (http://www.inkscape.org/) -->
<svg width="240" height="130" version="1.1" viewBox="0 0 63.5 34.396" xmlns="http://www.w3.org/2000/svg">
 <g transform="translate(-36.234 -82.023)">
  <g stroke="#fff" stroke-linecap="round" stroke-linejoin="round" stroke-width=".43015" style="paint-order:stroke fill markers" aria-label="Entwicklung Stick-Projekt zur Zeit: Marcel Partap +49 177 78 48 525 mpartap@gmx.net St. Petersburger Str. 12 01069 Dresden">
   <path d="m37.828 87.145v-2.9319h1.7837v0.2881h-1.4575v1.0126h1.2032v0.28386h-1.2032v1.0592h1.4575v0.2881z"/>
   <path d="m40.434 87.145h-0.31776v-2.1184h0.31352v0.14829q0.34318-0.19066 0.6567-0.19066 0.42368 0 0.56773 0.22879 0.14829 0.22879 0.14829 0.81346v1.1185h-0.31352v-1.11q0-0.44063-0.08897-0.60162-0.08474-0.16524-0.3686-0.16524-0.13558 0-0.2881 0.04237-0.14829 0.03813-0.22879 0.07626l-0.0805 0.03813z"/>
   <path d="m43.476 85.302h-0.67365v1.0126q0 0.36436 0.05084 0.47876 0.05508 0.11439 0.25421 0.11439l0.37707-0.02542 0.02118 0.26268q-0.28386 0.0466-0.43215 0.0466-0.33047 0-0.45757-0.161t-0.1271-0.61433v-1.1143h-0.30081v-0.27539h0.30081v-0.64823h0.31352v0.64823h0.67365z"/>
   <path d="m43.692 85.026h0.31776l0.42792 1.843h0.06779l0.50418-1.8006h0.33047l0.50418 1.8006h0.07203l0.42368-1.843h0.31776l-0.50418 2.1184h-0.5296l-0.4491-1.6566-0.4491 1.6566h-0.5296z"/>
   <path d="m47.094 87.145v-2.1184h0.31776v2.1184zm0-2.5972v-0.3686h0.31776v0.3686z"/>
   <path d="m48.814 84.984q0.13981 0 0.47452 0.05084l0.10168 0.01271-0.01271 0.25844q-0.33894-0.03813-0.49994-0.03813-0.36013 0-0.49147 0.17371-0.1271 0.16947-0.1271 0.63552 0 0.46181 0.11863 0.64399 0.12287 0.18218 0.50418 0.18218l0.49994-0.03813 0.01271 0.26268q-0.39402 0.05931-0.58891 0.05931-0.4957 0-0.68636-0.25421-0.18642-0.25421-0.18642-0.85583 0-0.60586 0.20337-0.84736 0.20337-0.24573 0.67789-0.24573z"/>
   <path d="m50.187 87.145h-0.31776v-3.042h0.31776v1.7964l0.33047-0.01695 0.60586-0.85583h0.36013l-0.6906 0.97446 0.72026 1.1439h-0.36013l-0.63128-0.98294-0.33471 0.01271z"/>
   <path d="m51.924 87.145v-3.042h0.31776v3.042z"/>
   <path d="m54.199 85.026h0.31776v2.1184h-0.31776v-0.14829q-0.31776 0.19066-0.62704 0.19066-0.43215 0-0.5762-0.22455-0.13981-0.22455-0.13981-0.83041v-1.1058h0.31776v1.1016q0 0.46181 0.0805 0.61857t0.36436 0.15676q0.13981 0 0.28386-0.03813 0.14405-0.04237 0.22031-0.0805l0.07626-0.03813z"/>
   <path d="m55.445 87.145h-0.31776v-2.1184h0.31352v0.14829q0.34318-0.19066 0.6567-0.19066 0.42368 0 0.56773 0.22879 0.14829 0.22879 0.14829 0.81346v1.1185h-0.31352v-1.11q0-0.44063-0.08897-0.60162-0.08474-0.16524-0.3686-0.16524-0.13558 0-0.2881 0.04237-0.14829 0.03813-0.22879 0.07626l-0.0805 0.03813z"/>
   <path d="m58.22 88.14q-0.50842 0-0.71178-0.13981-0.19913-0.13558-0.19913-0.49994 0-0.17371 0.07626-0.28386 0.07626-0.10592 0.25844-0.2415-0.11863-0.0805-0.11863-0.29234 0-0.07202 0.10592-0.26692l0.03813-0.06779q-0.33471-0.15252-0.33471-0.63976 0-0.72449 0.79228-0.72449 0.20337 0 0.37707 0.04237l0.06355 0.01271 0.62704-0.01695v0.27115l-0.4025-0.0085q0.13981 0.13981 0.13981 0.42368 0 0.39826-0.19913 0.55926-0.19489 0.15676-0.61857 0.15676-0.11439 0-0.2076-0.01695-0.07626 0.18642-0.07626 0.2415 0 0.13134 0.0805 0.16524 0.0805 0.02966 0.48723 0.02966 0.40673 0 0.58468 0.1271 0.17795 0.1271 0.17795 0.4957 0 0.67365-0.94057 0.67365zm-0.59739-0.66518q0 0.22455 0.12287 0.30929 0.1271 0.08897 0.46181 0.08897 0.33894 0 0.48299-0.09321 0.14829-0.09321 0.14829-0.31352 0-0.21608-0.10592-0.27963-0.10592-0.06355-0.41521-0.06355l-0.45757-0.021182q-0.13981 0.10168-0.19066 0.17794-0.0466 0.07626-0.0466 0.19489zm0.02966-1.7667q0 0.24997 0.11016 0.35589 0.11439 0.10592 0.37284 0.10592 0.25844 0 0.3686-0.10592 0.11016-0.10592 0.11016-0.35589 0-0.25421-0.11016-0.36013-0.11016-0.10592-0.3686-0.10592-0.25844 0-0.37284 0.11016-0.11016 0.10592-0.11016 0.35589z"/>
   <path d="m61.376 84.454q-0.63552 0-0.63552 0.47876 0 0.26692 0.14405 0.3686 0.14829 0.09745 0.59315 0.19913 0.4491 0.09745 0.63552 0.25844 0.18642 0.15676 0.18642 0.52112 0 0.90244-0.93633 0.90244-0.30929 0-0.77533-0.07203l-0.15252-0.02118 0.03389-0.27115q0.5762 0.07626 0.87702 0.07626 0.62704 0 0.62704-0.58891 0-0.23726-0.13981-0.33894-0.13558-0.10592-0.51265-0.17794-0.4957-0.10592-0.70331-0.27116-0.2076-0.16947-0.2076-0.56349 0-0.78804 0.9448-0.78804 0.30929 0 0.74144 0.06355l0.14405 0.02118-0.02966 0.27539q-0.58891-0.07202-0.83465-0.07202z"/>
   <path d="m63.867 85.302h-0.67365v1.0126q0 0.36436 0.05084 0.47876 0.05508 0.11439 0.25421 0.11439l0.37708-0.02542 0.02118 0.26268q-0.28386 0.0466-0.43215 0.0466-0.33047 0-0.45757-0.161-0.1271-0.161-0.1271-0.61433v-1.1143h-0.30081v-0.27539h0.30081v-0.64823h0.31352v0.64823h0.67365z"/>
   <path d="m64.257 87.145v-2.1184h0.31776v2.1184zm0-2.5972v-0.3686h0.31776v0.3686z"/>
   <path d="m65.977 84.984q0.13981 0 0.47452 0.05084l0.10168 0.01271-0.01271 0.25844q-0.33894-0.03813-0.49994-0.03813-0.36013 0-0.49147 0.17371-0.1271 0.16947-0.1271 0.63552 0 0.46181 0.11863 0.64399 0.12287 0.18218 0.50418 0.18218l0.49994-0.03813 0.01271 0.26268q-0.39402 0.05931-0.58891 0.05931-0.4957 0-0.68636-0.25421-0.18642-0.25421-0.18642-0.85583 0-0.60586 0.20337-0.84736 0.20337-0.24573 0.67789-0.24573z"/>
   <path d="m67.35 87.145h-0.31776v-3.042h0.31776v1.7964l0.33047-0.01695 0.60586-0.85583h0.36013l-0.6906 0.97446 0.72025 1.1439h-0.36013l-0.63128-0.98294-0.33471 0.01271z"/>
   <path d="m68.892 86.128v-0.29658h1.2837v0.29658z"/>
   <path d="m71.892 86.158h-0.74568v0.98717h-0.32623v-2.9319h1.0719q0.47876 0 0.70754 0.23302 0.22879 0.23302 0.22879 0.71178 0 0.99988-0.93633 0.99988zm-0.74568-0.2881h0.74144q0.60586 0 0.60586-0.71178 0-0.33894-0.14405-0.4957-0.14405-0.161-0.46181-0.161h-0.74144z"/>
   <path d="m73.277 87.145v-2.1184h0.31352v0.2881q0.3686-0.25421 0.77533-0.33471v0.322q-0.17794 0.03389-0.37284 0.10592-0.19066 0.07203-0.29234 0.1271l-0.10592 0.05508v1.5549z"/>
   <path d="m74.608 86.081q0-0.58044 0.2076-0.83888 0.2076-0.25844 0.69907-0.25844 0.4957 0 0.69907 0.25844 0.2076 0.25844 0.2076 0.83888t-0.19489 0.84312-0.71178 0.26268q-0.51689 0-0.71178-0.26268-0.19489-0.26268-0.19489-0.84312zm0.32623-0.0042q0 0.46181 0.11016 0.64823 0.11439 0.18642 0.47028 0.18642 0.36013 0 0.47028-0.18218 0.11016-0.18642 0.11016-0.65247t-0.12287-0.63976q-0.12287-0.17794-0.45757-0.17794-0.33047 0-0.45757 0.17794-0.12287 0.17371-0.12287 0.63976z"/>
   <path d="m76.942 87.09v-2.0633h0.31352v2.0676q0 0.38978-0.13981 0.58468t-0.56349 0.41097l-0.1271-0.24573q0.33047-0.19066 0.42368-0.32623 0.09321-0.13134 0.09321-0.42792zm0-2.5421v-0.3686h0.31352v0.3686z"/>
   <path d="m79.306 86.882 0.12287-0.01271 0.0085 0.24997q-0.48299 0.06779-0.82617 0.06779-0.45757 0-0.64823-0.26268-0.19066-0.26692-0.19066-0.82617 0-1.1143 0.88549-1.1143 0.42792 0 0.63976 0.2415 0.21184 0.23726 0.21184 0.74991l-0.01695 0.2415h-1.3981q0 0.35165 0.1271 0.52113 0.1271 0.16947 0.44063 0.16947 0.31776 0 0.64399-0.02542zm-0.11439-0.91938q0-0.38978-0.1271-0.55078-0.12287-0.161-0.40673-0.161-0.27963 0-0.42368 0.16947-0.13981 0.16947-0.14405 0.54231z"/>
   <path d="m80.323 87.145h-0.31776v-3.042h0.31776v1.7964l0.33047-0.01695 0.60586-0.85583h0.36013l-0.6906 0.97446 0.72025 1.1439h-0.36013l-0.63128-0.98294-0.33471 0.01271z"/>
   <path d="m83.132 85.302h-0.67365v1.0126q0 0.36436 0.05084 0.47876 0.05508 0.11439 0.25421 0.11439l0.37708-0.02542 0.02118 0.26268q-0.28386 0.0466-0.43215 0.0466-0.33047 0-0.45757-0.161-0.1271-0.161-0.1271-0.61433v-1.1143h-0.30081v-0.27539h0.30081v-0.64823h0.31352v0.64823h0.67365z"/>
   <path d="m84.327 85.31v-0.28386h1.5718v0.28386l-1.1863 1.5507h1.1863v0.28386h-1.5718v-0.28386l1.1863-1.5507z"/>
   <path d="m87.704 85.026h0.31776v2.1184h-0.31776v-0.14829q-0.31776 0.19066-0.62704 0.19066-0.43215 0-0.5762-0.22455-0.13981-0.22455-0.13981-0.83041v-1.1058h0.31776v1.1016q0 0.46181 0.0805 0.61857t0.36436 0.15676q0.13981 0 0.28386-0.03813 0.14405-0.04237 0.22031-0.0805l0.07626-0.03813z"/>
   <path d="m88.631 87.145v-2.1184h0.31352v0.2881q0.3686-0.25421 0.77533-0.33471v0.322q-0.17795 0.03389-0.37284 0.10592-0.19066 0.07203-0.29234 0.1271l-0.10592 0.05508v1.5549z"/>
   <path d="m90.907 84.501v-0.2881h1.9066v0.38131l-1.5337 2.1777v0.08474h1.5337v0.29234h-1.9066v-0.37708l1.5295-2.1777v-0.09321z"/>
   <path d="m94.699 86.882 0.12287-0.01271 0.0085 0.24997q-0.48299 0.06779-0.82617 0.06779-0.45757 0-0.64823-0.26268-0.19066-0.26692-0.19066-0.82617 0-1.1143 0.88549-1.1143 0.42792 0 0.63976 0.2415 0.21184 0.23726 0.21184 0.74991l-0.01695 0.2415h-1.3981q0 0.35165 0.1271 0.52113 0.1271 0.16947 0.44063 0.16947 0.31776 0 0.64399-0.02542zm-0.11439-0.91938q0-0.38978-0.1271-0.55078-0.12287-0.161-0.40673-0.161-0.27963 0-0.42368 0.16947-0.13981 0.16947-0.14405 0.54231z"/>
   <path d="m95.398 87.145v-2.1184h0.31776v2.1184zm0-2.5972v-0.3686h0.31776v0.3686z"/>
   <path d="m97.423 85.302h-0.67365v1.0126q0 0.36436 0.05084 0.47876 0.05508 0.11439 0.25421 0.11439l0.37707-0.02542 0.02118 0.26268q-0.28386 0.0466-0.43215 0.0466-0.33047 0-0.45757-0.161t-0.1271-0.61433v-1.1143h-0.30081v-0.27539h0.30081v-0.64823h0.31352v0.64823h0.67365z"/>
   <path d="m97.791 85.781v-0.48299h0.34742v0.48299zm0 1.3642v-0.48299h0.34742v0.48299z"/>
   <path d="m39.075 93.112v-2.9319h0.58891l0.83041 2.4785 0.83041-2.4785h0.58891v2.9319h-0.32623v-2.5844h-0.05932l-0.8516 2.4785h-0.36436l-0.8516-2.4785h-0.05932v2.5844z"/>
   <path d="m44.074 91.633v1.0846q0.01271 0.15676 0.24573 0.18642l-0.01271 0.24997q-0.33471 0-0.50418-0.16947-0.38131 0.16947-0.76262 0.16947-0.29234 0-0.44486-0.16524-0.15252-0.16524-0.15252-0.47452 0-0.30929 0.15676-0.45334 0.15676-0.14829 0.49147-0.18218l0.66518-0.06355v-0.18218q0-0.21608-0.09321-0.30929t-0.25421-0.09321q-0.33894 0-0.70331 0.04237l-0.13134 0.01271-0.01271-0.2415q0.46605-0.09321 0.82617-0.09321t0.52112 0.16524q0.16524 0.16524 0.16524 0.51689zm-1.3049 0.8643q0 0.38978 0.322 0.38978 0.2881 0 0.56773-0.09745l0.09745-0.03389v-0.69907l-0.62704 0.05931q-0.19066 0.01695-0.27539 0.11016-0.08474 0.09321-0.08474 0.27115z"/>
   <path d="m44.701 93.112v-2.1184h0.31352v0.2881q0.3686-0.25421 0.77533-0.33471v0.322q-0.17794 0.0339-0.37284 0.10592-0.19066 0.07202-0.29234 0.1271l-0.10592 0.05508v1.5549z"/>
   <path d="m46.917 90.951q0.13981 0 0.47452 0.05084l0.10168 0.01271-0.01271 0.25844q-0.33894-0.03813-0.49994-0.03813-0.36013 0-0.49147 0.17371-0.1271 0.16947-0.1271 0.63552 0 0.46181 0.11863 0.64399 0.12287 0.18218 0.50418 0.18218l0.49994-0.03813 0.01271 0.26268q-0.39402 0.05931-0.58891 0.05931-0.4957 0-0.68636-0.25421-0.18642-0.25421-0.18642-0.85583 0-0.60586 0.20337-0.84736 0.20337-0.24573 0.67789-0.24573z"/>
   <path d="m49.387 92.849 0.12287-0.01271 0.0085 0.24997q-0.48299 0.06779-0.82617 0.06779-0.45757 0-0.64823-0.26268-0.19066-0.26692-0.19066-0.82617 0-1.1143 0.88549-1.1143 0.42792 0 0.63976 0.2415 0.21184 0.23726 0.21184 0.74991l-0.01695 0.2415h-1.3981q0 0.35165 0.1271 0.52112 0.1271 0.16947 0.44063 0.16947 0.31776 0 0.64399-0.02542zm-0.11439-0.91938q0-0.38978-0.1271-0.55078-0.12287-0.161-0.40673-0.161-0.27963 0-0.42368 0.16947-0.13981 0.16947-0.14405 0.54231z"/>
   <path d="m50.112 93.112v-3.042h0.31776v3.042z"/>
   <path d="m53.124 92.125h-0.74568v0.98717h-0.32623v-2.9319h1.0719q0.47876 0 0.70754 0.23302 0.22879 0.23302 0.22879 0.71178 0 0.99988-0.93633 0.99988zm-0.74568-0.2881h0.74144q0.60586 0 0.60586-0.71178 0-0.33894-0.14405-0.4957-0.14405-0.161-0.46181-0.161h-0.74144z"/>
   <path d="m55.984 91.633v1.0846q0.01271 0.15676 0.24573 0.18642l-0.01271 0.24997q-0.33471 0-0.50418-0.16947-0.38131 0.16947-0.76262 0.16947-0.29234 0-0.44486-0.16524-0.15252-0.16524-0.15252-0.47452 0-0.30929 0.15676-0.45334 0.15676-0.14829 0.49147-0.18218l0.66518-0.06355v-0.18218q0-0.21608-0.09321-0.30929t-0.25421-0.09321q-0.33894 0-0.70331 0.04237l-0.13134 0.01271-0.01271-0.2415q0.46605-0.09321 0.82617-0.09321t0.52112 0.16524q0.16524 0.16524 0.16524 0.51689zm-1.3049 0.8643q0 0.38978 0.322 0.38978 0.2881 0 0.56773-0.09745l0.09745-0.03389v-0.69907l-0.62704 0.05931q-0.19066 0.01695-0.27539 0.11016-0.08474 0.09321-0.08474 0.27115z"/>
   <path d="m56.611 93.112v-2.1184h0.31352v0.2881q0.3686-0.25421 0.77533-0.33471v0.322q-0.17794 0.0339-0.37284 0.10592-0.19066 0.07202-0.29234 0.1271l-0.10592 0.05508v1.5549z"/>
   <path d="m59.174 91.269h-0.67365v1.0126q0 0.36436 0.05084 0.47876 0.05508 0.11439 0.25421 0.11439l0.37707-0.02542 0.02118 0.26268q-0.28386 0.0466-0.43215 0.0466-0.33047 0-0.45757-0.161t-0.1271-0.61434v-1.1143h-0.30081v-0.27539h0.30081v-0.64823h0.31352v0.64823h0.67365z"/>
   <path d="m61.06 91.633v1.0846q0.01271 0.15676 0.24573 0.18642l-0.01271 0.24997q-0.33471 0-0.50418-0.16947-0.38131 0.16947-0.76262 0.16947-0.29234 0-0.44486-0.16524-0.15252-0.16524-0.15252-0.47452 0-0.30929 0.15676-0.45334 0.15676-0.14829 0.49147-0.18218l0.66518-0.06355v-0.18218q0-0.21608-0.09321-0.30929t-0.25421-0.09321q-0.33894 0-0.70331 0.04237l-0.13134 0.01271-0.01271-0.2415q0.46605-0.09321 0.82618-0.09321 0.36013 0 0.52112 0.16524 0.16524 0.16524 0.16524 0.51689zm-1.3049 0.8643q0 0.38978 0.322 0.38978 0.2881 0 0.56773-0.09745l0.09745-0.03389v-0.69907l-0.62704 0.05931q-0.19066 0.01695-0.27539 0.11016-0.08474 0.09321-0.08474 0.27115z"/>
   <path d="m61.687 94.053v-3.059h0.31352v0.15252q0.322-0.19489 0.63552-0.19489 0.4025 0 0.58468 0.25844 0.18218 0.25421 0.18218 0.84312 0 0.58891-0.21608 0.84736-0.21184 0.25421-0.70754 0.25421-0.25844 0-0.47452-0.0466v0.9448zm0.90244-2.8175q-0.1271 0-0.27539 0.04237-0.14405 0.04237-0.22879 0.08474l-0.0805 0.04237v1.4278q0.30081 0.0466 0.45757 0.0466 0.34318 0 0.47876-0.19489 0.13981-0.19489 0.13981-0.63552 0-0.44063-0.1271-0.62704-0.12287-0.18642-0.36436-0.18642z"/>
   <path d="m38.948 97.489v-0.2881h0.80075v-0.82617h0.29658v0.82617h0.80923v0.2881h-0.80923v0.83465h-0.29658v-0.83465z"/>
   <path d="m42.613 98.408v-0.54655h-1.3558v-0.25421l0.79652-1.9955h0.35589l-0.80923 1.9616h1.0126v-0.87278h0.32623v0.87278h0.35589v0.2881h-0.35589v0.54655z"/>
   <path d="m44.507 98.162q0.76686 0 0.7711-0.97446-0.42368 0.161-0.72873 0.161-0.91515 0-0.91515-0.8516 0-0.42792 0.26268-0.67789 0.26268-0.24997 0.70754-0.24997 0.51265 0 0.76262 0.38131 0.24997 0.37708 0.24997 1.1143 0 0.73296-0.28386 1.0592-0.27963 0.32623-0.82617 0.32623-0.31776 0-0.6567-0.05932l-0.11016-0.01695 0.02966-0.26268q0.38131 0.05084 0.7372 0.05084zm0.06779-1.1016q0.25844 0 0.59739-0.11439l0.11016-0.03813q-0.01271-1.0507-0.67789-1.0507-0.29658 0-0.46605 0.17371-0.16524 0.16947-0.16524 0.46605 0 0.56349 0.60162 0.56349z"/>
   <path d="m48.413 95.612v2.7963h-0.32623v-2.4319l-0.72025 0.47452-0.14829-0.24573 0.88973-0.59315z"/>
   <path d="m49.464 95.908v-0.29658h1.7371v0.42792l-1.0761 2.4107-0.30929-0.09745 1.055-2.3345v-0.11016z"/>
   <path d="m51.836 95.908v-0.29658h1.7371v0.42792l-1.0761 2.4107-0.30929-0.09745 1.055-2.3345v-0.11016z"/>
   <path d="m55.141 95.908v-0.29658h1.7371v0.42792l-1.0761 2.4107-0.30929-0.09745 1.055-2.3345v-0.11016z"/>
   <path d="m57.632 95.752q0.26692-0.18642 0.73296-0.18642t0.7372 0.18642q0.27539 0.18218 0.27539 0.54231 0 0.26268-0.10592 0.4025-0.10592 0.13558-0.36013 0.24997 0.25421 0.11439 0.38131 0.27116 0.1271 0.15252 0.1271 0.43215 0 0.80075-1.0507 0.80075-1.0465 0-1.0465-0.75415 0-0.30081 0.11439-0.45757 0.11863-0.15676 0.3686-0.29234-0.22879-0.11439-0.33471-0.25844-0.10168-0.14829-0.10168-0.39826 0-0.35589 0.26268-0.53807zm0.03813 1.8896q0 0.51265 0.69907 0.51265 0.70331 0 0.70331-0.53807 0-0.22455-0.1271-0.33047-0.12287-0.11016-0.3686-0.18218h-0.44486q-0.23302 0.06355-0.34742 0.19066-0.11439 0.12287-0.11439 0.34742zm1.36-1.3092q0-0.47028-0.6567-0.47028-0.6567 0-0.6567 0.46605 0 0.18642 0.10168 0.30081 0.10168 0.11439 0.31352 0.19066h0.44486q0.22879-0.07202 0.33894-0.18642 0.11439-0.11439 0.11439-0.30081z"/>
   <path d="m62.017 98.408v-0.54655h-1.3558v-0.25421l0.79652-1.9955h0.35589l-0.80923 1.9616h1.0126v-0.87278h0.32623v0.87278h0.35589v0.2881h-0.35589v0.54655z"/>
   <path d="m63.309 95.752q0.26692-0.18642 0.73296-0.18642t0.7372 0.18642q0.27539 0.18218 0.27539 0.54231 0 0.26268-0.10592 0.4025-0.10592 0.13558-0.36013 0.24997 0.25421 0.11439 0.38131 0.27116 0.1271 0.15252 0.1271 0.43215 0 0.80075-1.0507 0.80075-1.0465 0-1.0465-0.75415 0-0.30081 0.11439-0.45757 0.11863-0.15676 0.3686-0.29234-0.22879-0.11439-0.33471-0.25844-0.10168-0.14829-0.10168-0.39826 0-0.35589 0.26268-0.53807zm0.03813 1.8896q0 0.51265 0.69907 0.51265 0.70331 0 0.70331-0.53807 0-0.22455-0.1271-0.33047-0.12287-0.11016-0.3686-0.18218h-0.44486q-0.23302 0.06355-0.34742 0.19066-0.11439 0.12287-0.11439 0.34742zm1.36-1.3092q0-0.47028-0.6567-0.47028-0.6567 0-0.6567 0.46605 0 0.18642 0.10168 0.30081 0.10168 0.11439 0.31352 0.19066h0.44486q0.22879-0.07202 0.33894-0.18642 0.11439-0.11439 0.11439-0.30081z"/>
   <path d="m68.19 95.612v0.29658h-1.36l-0.07626 0.91091q0.32623-0.17371 0.6567-0.17371 0.88973 0 0.88973 0.82617 0 0.47452-0.24573 0.72449-0.24573 0.24997-0.6906 0.24997-0.35589 0-0.78804-0.09321l-0.13982-0.02966 0.03813-0.25844q0.48723 0.09321 0.8177 0.09321 0.33471 0 0.50418-0.16947 0.16947-0.17371 0.16947-0.48299 0-0.30928-0.15676-0.43639-0.15252-0.13134-0.43639-0.13134-0.15252 0-0.322 0.04237-0.16524 0.04237-0.25421 0.08474l-0.08897 0.04237-0.22455-0.04237 0.07626-1.4532z"/>
   <path d="m70.622 98.408h-1.7879v-0.27539l0.8177-0.86007q0.21184-0.22031 0.30929-0.33471 0.09745-0.11439 0.17371-0.27115 0.0805-0.15676 0.0805-0.31352 0-0.27115-0.14829-0.38131-0.14829-0.11016-0.46181-0.11016-0.27539 0-0.61434 0.07202l-0.11016 0.02118-0.02542-0.27115q0.4025-0.11439 0.83041-0.11439 0.42792 0 0.64399 0.18218 0.22031 0.17794 0.22031 0.56773 0 0.29658-0.13134 0.51689-0.13134 0.22031-0.45334 0.5296l-0.74568 0.75839h1.4024z"/>
   <path d="m72.935 95.612v0.29658h-1.36l-0.07626 0.91091q0.32623-0.17371 0.6567-0.17371 0.88973 0 0.88973 0.82617 0 0.47452-0.24573 0.72449-0.24573 0.24997-0.6906 0.24997-0.35589 0-0.78804-0.09321l-0.13981-0.02966 0.03813-0.25844q0.48723 0.09321 0.8177 0.09321 0.33471 0 0.50418-0.16947 0.16947-0.17371 0.16947-0.48299 0-0.30928-0.15676-0.43639-0.15252-0.13134-0.43639-0.13134-0.15252 0-0.322 0.04237-0.16524 0.04237-0.25421 0.08474l-0.08897 0.04237-0.22455-0.04237 0.07626-1.4532z"/>
   <path d="m39.338 103.7h-0.31776v-2.1184h0.31352v0.14828q0.31776-0.19065 0.61857-0.19065 0.39402 0 0.55078 0.21608 0.13982-0.0847 0.36013-0.14829 0.22455-0.0678 0.39402-0.0678 0.42368 0 0.56773 0.22879 0.14829 0.22455 0.14829 0.81346v1.1185h-0.31776v-1.11q0-0.44062-0.08474-0.60162-0.08474-0.16524-0.36013-0.16524-0.13981 0-0.2881 0.0424-0.14829 0.0381-0.22879 0.0763l-0.0805 0.0381q0.05508 0.13981 0.05508 0.61857v1.1016h-0.31776v-1.0931q0-0.45757-0.08474-0.61857-0.0805-0.16524-0.36013-0.16524-0.13558 0-0.27963 0.0424-0.13981 0.0381-0.21608 0.0763l-0.07203 0.0381z"/>
   <path d="m42.562 104.64v-3.059h0.31352v0.15252q0.322-0.19489 0.63552-0.19489 0.4025 0 0.58468 0.25844 0.18218 0.25421 0.18218 0.84312 0 0.58892-0.21608 0.84736-0.21184 0.25421-0.70754 0.25421-0.25844 0-0.47452-0.0466v0.9448zm0.90244-2.8175q-0.1271 0-0.27539 0.0424-0.14405 0.0424-0.22879 0.0847l-0.0805 0.0424v1.4278q0.30081 0.0466 0.45757 0.0466 0.34318 0 0.47876-0.19489 0.13981-0.1949 0.13981-0.63552 0-0.44063-0.1271-0.62705-0.12287-0.18642-0.36436-0.18642z"/>
   <path d="m46.29 102.23v1.0846q0.01271 0.15676 0.24573 0.18642l-0.01271 0.24997q-0.33471 0-0.50418-0.16947-0.38131 0.16947-0.76262 0.16947-0.29234 0-0.44486-0.16523-0.15252-0.16524-0.15252-0.47453 0-0.30928 0.15676-0.45333 0.15676-0.14829 0.49147-0.18218l0.66518-0.0636v-0.18218q0-0.21607-0.09321-0.30928-0.09321-0.0932-0.25421-0.0932-0.33894 0-0.70331 0.0424l-0.13134 0.0127-0.01271-0.2415q0.46605-0.0932 0.82617-0.0932 0.36013 0 0.52113 0.16523 0.16523 0.16524 0.16523 0.51689zm-1.3049 0.86431q0 0.38978 0.322 0.38978 0.2881 0 0.56773-0.0974l0.09745-0.0339v-0.69907l-0.62704 0.0593q-0.19066 0.0169-0.27539 0.11015-0.08474 0.0932-0.08474 0.27116z"/>
   <path d="m46.917 103.7v-2.1184h0.31352v0.2881q0.3686-0.25421 0.77533-0.33471v0.322q-0.17794 0.0339-0.37284 0.10592-0.19066 0.072-0.29234 0.1271l-0.10592 0.0551v1.5549z"/>
   <path d="m49.481 101.86h-0.67365v1.0126q0 0.36437 0.05084 0.47876 0.05508 0.11439 0.25421 0.11439l0.37707-0.0254 0.02118 0.26268q-0.28386 0.0466-0.43215 0.0466-0.33047 0-0.45757-0.161t-0.1271-0.61434v-1.1143h-0.30081v-0.27539h0.30081v-0.64823h0.31352v0.64823h0.67365z"/>
   <path d="m51.366 102.23v1.0846q0.01271 0.15676 0.24573 0.18642l-0.01271 0.24997q-0.33471 0-0.50418-0.16947-0.38131 0.16947-0.76262 0.16947-0.29234 0-0.44486-0.16523-0.15252-0.16524-0.15252-0.47453 0-0.30928 0.15676-0.45333 0.15676-0.14829 0.49147-0.18218l0.66518-0.0636v-0.18218q0-0.21607-0.09321-0.30928-0.09321-0.0932-0.25421-0.0932-0.33894 0-0.70331 0.0424l-0.13134 0.0127-0.01271-0.2415q0.46605-0.0932 0.82617-0.0932t0.52112 0.16523q0.16524 0.16524 0.16524 0.51689zm-1.3049 0.86431q0 0.38978 0.322 0.38978 0.2881 0 0.56773-0.0974l0.09745-0.0339v-0.69907l-0.62704 0.0593q-0.19066 0.0169-0.27539 0.11015-0.08474 0.0932-0.08474 0.27116z"/>
   <path d="m51.993 104.64v-3.059h0.31352v0.15252q0.322-0.19489 0.63552-0.19489 0.4025 0 0.58468 0.25844 0.18218 0.25421 0.18218 0.84312 0 0.58892-0.21608 0.84736-0.21184 0.25421-0.70754 0.25421-0.25844 0-0.47452-0.0466v0.9448zm0.90244-2.8175q-0.1271 0-0.27539 0.0424-0.14405 0.0424-0.22879 0.0847l-0.0805 0.0424v1.4278q0.30081 0.0466 0.45757 0.0466 0.34318 0 0.47876-0.19489 0.13981-0.1949 0.13981-0.63552 0-0.44063-0.1271-0.62705-0.12287-0.18642-0.36436-0.18642z"/>
   <path d="m57.874 102.41v0.0551q0 0.8982-0.28386 1.1312-0.10168 0.0805-0.2076 0.10592-0.10168 0.0254-0.23726 0.0254-0.13134 0-0.22879-0.0254-0.09321-0.0254-0.14405-0.0635-0.10168-0.0763-0.13981-0.16523-0.4152 0.24997-0.7372 0.24997-0.15676 0-0.27539-0.0381-0.11439-0.0381-0.23302-0.14406-0.23726-0.21184-0.23726-0.82617t0.19066-0.88125q0.19489-0.27116 0.66941-0.27116 0.18218 0 0.41097 0.0805l0.07626 0.0297v-0.0678h0.31776v0.80923q0 0.74144 0.0466 0.88125 0.02118 0.0551 0.05931 0.10168 0.04237 0.0466 0.08897 0.0551 0.0466 8e-3 0.161 8e-3 0.11439 0 0.19066-0.0551 0.0805-0.0551 0.13558-0.27963 0.05508-0.22455 0.05508-0.66094v-0.0593q0-0.7838-0.34742-1.1355-0.34742-0.35165-1.1566-0.35165-0.80499 0-1.199 0.4025-0.38978 0.39825-0.38978 1.3007 0 0.8982 0.37284 1.2795 0.37284 0.38131 1.2244 0.38131l0.60586-0.0424 0.01271 0.28387q-0.39826 0.0381-0.61857 0.0381-0.49147 0-0.83465-0.0932-0.33894-0.0932-0.58891-0.31776-0.4957-0.43215-0.4957-1.5549 0-1.0211 0.48723-1.4871 0.48723-0.47029 1.432-0.47029t1.3812 0.43639q0.43639 0.43216 0.43639 1.3346zm-1.9574 1.0338q0.18218 0 0.61857-0.19489-0.03813-0.22879-0.03813-0.73297v-0.58891q-0.25421-0.0847-0.43639-0.0847-0.34318 0-0.46605 0.19489-0.12287 0.1949-0.12287 0.63129 0 0.77533 0.44486 0.77533z"/>
   <path d="m59.183 104.7q-0.50842 0-0.71178-0.13982-0.19913-0.13557-0.19913-0.49994 0-0.17371 0.07626-0.28386 0.07626-0.10592 0.25844-0.2415-0.11863-0.0805-0.11863-0.29234 0-0.072 0.10592-0.26692l0.03813-0.0678q-0.33471-0.15253-0.33471-0.63976 0-0.72449 0.79228-0.72449 0.20337 0 0.37707 0.0424l0.06355 0.0127 0.62704-0.017v0.27116l-0.4025-8e-3q0.13981 0.13982 0.13981 0.42368 0 0.39826-0.19913 0.55926-0.19489 0.15676-0.61857 0.15676-0.11439 0-0.2076-0.017-0.07626 0.18642-0.07626 0.2415 0 0.13134 0.0805 0.16523 0.0805 0.0297 0.48723 0.0297 0.40673 0 0.58468 0.1271 0.17794 0.12711 0.17794 0.49571 0 0.67365-0.94057 0.67365zm-0.59739-0.66518q0 0.22455 0.12287 0.30929 0.1271 0.089 0.46181 0.089 0.33894 0 0.48299-0.0932 0.14829-0.0932 0.14829-0.31352 0-0.21608-0.10592-0.27963-0.10592-0.0636-0.41521-0.0636l-0.45757-0.0212q-0.13981 0.10169-0.19066 0.17795-0.0466 0.0763-0.0466 0.19489zm0.02966-1.7667q0 0.24997 0.11016 0.35589 0.11439 0.10592 0.37284 0.10592 0.25844 0 0.3686-0.10592 0.11016-0.10592 0.11016-0.35589 0-0.25421-0.11016-0.36013-0.11016-0.10592-0.3686-0.10592-0.25844 0-0.37284 0.11016-0.11016 0.10592-0.11016 0.35589z"/>
   <path d="m60.861 103.7h-0.31776v-2.1184h0.31352v0.14828q0.31776-0.19065 0.61857-0.19065 0.39402 0 0.55078 0.21608 0.13981-0.0847 0.36013-0.14829 0.22455-0.0678 0.39402-0.0678 0.42368 0 0.56773 0.22879 0.14829 0.22455 0.14829 0.81346v1.1185h-0.31776v-1.11q0-0.44062-0.08474-0.60162-0.08474-0.16524-0.36013-0.16524-0.13981 0-0.2881 0.0424-0.14829 0.0381-0.22879 0.0763l-0.0805 0.0381q0.05508 0.13981 0.05508 0.61857v1.1016h-0.31776v-1.0931q0-0.45757-0.08473-0.61857-0.0805-0.16524-0.36013-0.16524-0.13558 0-0.27963 0.0424-0.13981 0.0381-0.21608 0.0763l-0.07203 0.0381z"/>
   <path d="m63.873 101.59h0.34742l0.51689 0.83041 0.51689-0.83041h0.34742l-0.67365 1.0507 0.66941 1.0677h-0.34742l-0.51265-0.82617-0.51689 0.82617h-0.34742l0.66518-1.0592z"/>
   <path d="m65.979 103.7v-0.48299h0.34742v0.48299z"/>
   <path d="m67.233 103.7h-0.31776v-2.1184h0.31352v0.14828q0.34318-0.19065 0.6567-0.19065 0.42368 0 0.56773 0.22879 0.14829 0.22878 0.14829 0.81346v1.1185h-0.31352v-1.11q0-0.44062-0.08897-0.60162-0.08474-0.16524-0.3686-0.16524-0.13558 0-0.2881 0.0424-0.14829 0.0381-0.22879 0.0763l-0.0805 0.0381z"/>
   <path d="m70.631 103.44 0.12287-0.0127 0.0085 0.24997q-0.483 0.0678-0.82618 0.0678-0.45757 0-0.64823-0.26268-0.19066-0.26692-0.19066-0.82617 0-1.1143 0.88549-1.1143 0.42792 0 0.63976 0.2415 0.21184 0.23726 0.21184 0.74991l-0.01695 0.2415h-1.3982q0 0.35165 0.1271 0.52112 0.1271 0.16947 0.44063 0.16947 0.31776 0 0.64399-0.0254zm-0.11439-0.91938q0-0.38979-0.1271-0.55078-0.12287-0.161-0.40673-0.161-0.27963 0-0.42368 0.16947-0.13981 0.16947-0.14405 0.54231z"/>
   <path d="m72.414 101.86h-0.67365v1.0126q0 0.36437 0.05084 0.47876 0.05508 0.11439 0.25421 0.11439l0.37707-0.0254 0.02118 0.26268q-0.28386 0.0466-0.43215 0.0466-0.33047 0-0.45757-0.161t-0.1271-0.61434v-1.1143h-0.30081v-0.27539h0.30081v-0.64823h0.31352v0.64823h0.67365z"/>
   <path d="m39.884 106.31q-0.63552 0-0.63552 0.47876 0 0.26691 0.14405 0.3686 0.14829 0.0974 0.59315 0.19913 0.4491 0.0974 0.63552 0.25844 0.18642 0.15676 0.18642 0.52112 0 0.90244-0.93633 0.90244-0.30929 0-0.77533-0.072l-0.15252-0.0212 0.03389-0.27115q0.5762 0.0763 0.87702 0.0763 0.62704 0 0.62704-0.58891 0-0.23726-0.13982-0.33895-0.13558-0.10592-0.51265-0.17794-0.4957-0.10592-0.70331-0.27116-0.2076-0.16947-0.2076-0.56349 0-0.78804 0.9448-0.78804 0.30929 0 0.74144 0.0635l0.14405 0.0212-0.02966 0.27539q-0.58891-0.072-0.83465-0.072z"/>
   <path d="m42.375 107.16h-0.67365v1.0126q0 0.36436 0.05084 0.47876 0.05508 0.11439 0.25421 0.11439l0.37707-0.0254 0.02118 0.26268q-0.28386 0.0466-0.43215 0.0466-0.33047 0-0.45757-0.16099-0.1271-0.161-0.1271-0.61434v-1.1143h-0.30081v-0.27539h0.30081v-0.64823h0.31352v0.64823h0.67365z"/>
   <path d="m42.744 109v-0.48299h0.34742v0.48299z"/>
   <path d="m45.739 108.01h-0.74568v0.98717h-0.32623v-2.9319h1.0719q0.47876 0 0.70754 0.23302 0.22879 0.23303 0.22879 0.71179 0 0.99988-0.93633 0.99988zm-0.74568-0.2881h0.74144q0.60586 0 0.60586-0.71178 0-0.33895-0.14405-0.49571-0.14405-0.161-0.46181-0.161h-0.74144z"/>
   <path d="m48.548 108.74 0.12287-0.0127 0.0085 0.24997q-0.48299 0.0678-0.82617 0.0678-0.45757 0-0.64823-0.26268-0.19066-0.26692-0.19066-0.82618 0-1.1143 0.88549-1.1143 0.42792 0 0.63976 0.24149 0.21184 0.23726 0.21184 0.74992l-0.01695 0.24149h-1.3981q0 0.35166 0.1271 0.52113t0.44063 0.16947q0.31776 0 0.64399-0.0254zm-0.11439-0.91938q0-0.38979-0.1271-0.55079-0.12287-0.161-0.40673-0.161-0.27963 0-0.42368 0.16948-0.13981 0.16947-0.14405 0.54231z"/>
   <path d="m50.332 107.16h-0.67365v1.0126q0 0.36436 0.05084 0.47876 0.05508 0.11439 0.25421 0.11439l0.37707-0.0254 0.02118 0.26268q-0.28386 0.0466-0.43215 0.0466-0.33047 0-0.45757-0.16099-0.1271-0.161-0.1271-0.61434v-1.1143h-0.30081v-0.27539h0.30081v-0.64823h0.31352v0.64823h0.67365z"/>
   <path d="m52.162 108.74 0.12287-0.0127 0.0085 0.24997q-0.48299 0.0678-0.82617 0.0678-0.45757 0-0.64823-0.26268-0.19066-0.26692-0.19066-0.82618 0-1.1143 0.88549-1.1143 0.42792 0 0.63976 0.24149 0.21184 0.23726 0.21184 0.74992l-0.01695 0.24149h-1.3981q0 0.35166 0.1271 0.52113 0.1271 0.16947 0.44063 0.16947 0.31776 0 0.64399-0.0254zm-0.11439-0.91938q0-0.38979-0.1271-0.55079-0.12287-0.161-0.40673-0.161-0.27963 0-0.42368 0.16948-0.13981 0.16947-0.14405 0.54231z"/>
   <path d="m52.861 109v-2.1184h0.31352v0.2881q0.3686-0.25421 0.77533-0.33471v0.322q-0.17794 0.0339-0.37284 0.10592-0.19066 0.072-0.29234 0.1271l-0.10592 0.0551v1.5549z"/>
   <path d="m54.993 107.12q-0.46181 0-0.46181 0.322 0 0.14829 0.10592 0.21184 0.10592 0.0593 0.48299 0.1271 0.37708 0.0635 0.53384 0.18218 0.15676 0.11863 0.15676 0.44487 0 0.32623-0.21184 0.47875-0.2076 0.15253-0.6101 0.15253-0.26268 0-0.61857-0.0593l-0.1271-0.0212 0.01695-0.27539q0.48299 0.072 0.72873 0.072t0.37284-0.0763q0.13134-0.0805 0.13134-0.26268 0-0.18642-0.11016-0.24997-0.11016-0.0678-0.48299-0.1271-0.37284-0.0593-0.5296-0.17371-0.15676-0.1144-0.15676-0.42368 0-0.30929 0.21608-0.45758 0.22031-0.14828 0.54655-0.14828 0.25844 0 0.64823 0.0593l0.11863 0.0212-0.0085 0.27115q-0.47028-0.0678-0.74144-0.0678z"/>
   <path d="m57.234 106.84q0.42792 0 0.59739 0.24573 0.17371 0.2415 0.17371 0.8516 0 0.61009-0.21608 0.86006-0.21184 0.24574-0.78381 0.24574-0.17794 0-0.58891-0.0339l-0.11863-0.0127v-3.0378h0.31352v1.0295q0.322-0.14828 0.62281-0.14828zm-0.23302 1.9193q0.4152 0 0.54655-0.18642 0.13558-0.19065 0.13558-0.63975t-0.10592-0.62705q-0.10592-0.18218-0.37708-0.18218-0.24573 0-0.50418 0.0932l-0.08474 0.0297v1.4914q0.27539 0.0212 0.38978 0.0212z"/>
   <path d="m59.848 106.88h0.31776v2.1184h-0.31776v-0.14829q-0.31776 0.19066-0.62704 0.19066-0.43215 0-0.5762-0.22455-0.13981-0.22455-0.13981-0.83041v-1.1058h0.31776v1.1016q0 0.46181 0.0805 0.61857t0.36436 0.15676q0.13981 0 0.28386-0.0381 0.14405-0.0424 0.22031-0.0805l0.07626-0.0381z"/>
   <path d="m60.776 109v-2.1184h0.31352v0.2881q0.3686-0.25421 0.77533-0.33471v0.322q-0.17794 0.0339-0.37284 0.10592-0.19066 0.072-0.29234 0.1271l-0.10592 0.0551v1.5549z"/>
   <path d="m63.03 110q-0.50842 0-0.71178-0.13982-0.19913-0.13558-0.19913-0.49994 0-0.17371 0.07626-0.28386 0.07626-0.10592 0.25844-0.2415-0.11863-0.0805-0.11863-0.29234 0-0.072 0.10592-0.26692l0.03813-0.0678q-0.33471-0.15252-0.33471-0.63975 0-0.72449 0.79228-0.72449 0.20336 0 0.37707 0.0424l0.06355 0.0127 0.62704-0.0169v0.27115l-0.4025-8e-3q0.13981 0.13981 0.13981 0.42368 0 0.39826-0.19913 0.55925-0.19489 0.15677-0.61857 0.15677-0.11439 0-0.2076-0.0169-0.07626 0.18642-0.07626 0.2415 0 0.13134 0.0805 0.16523 0.0805 0.0297 0.48723 0.0297 0.40673 0 0.58468 0.1271 0.17794 0.12711 0.17794 0.49571 0 0.67365-0.94057 0.67365zm-0.59739-0.66518q0 0.22455 0.12287 0.30929 0.1271 0.089 0.46181 0.089 0.33894 0 0.48299-0.0932 0.14829-0.0932 0.14829-0.31352 0-0.21608-0.10592-0.27963-0.10592-0.0636-0.41521-0.0636l-0.45757-0.0212q-0.13981 0.10169-0.19066 0.17795-0.0466 0.0763-0.0466 0.19489zm0.02966-1.7667q0 0.24997 0.11016 0.35589 0.11439 0.10592 0.37284 0.10592t0.3686-0.10592q0.11016-0.10592 0.11016-0.35589 0-0.25421-0.11016-0.36013-0.11016-0.10592-0.3686-0.10592t-0.37284 0.11016q-0.11016 0.10592-0.11016 0.35589z"/>
   <path d="m65.83 108.74 0.12287-0.0127 0.0085 0.24997q-0.48299 0.0678-0.82617 0.0678-0.45757 0-0.64823-0.26268-0.19066-0.26692-0.19066-0.82618 0-1.1143 0.88549-1.1143 0.42792 0 0.63976 0.24149 0.21184 0.23726 0.21184 0.74992l-0.01695 0.24149h-1.3981q0 0.35166 0.1271 0.52113 0.1271 0.16947 0.44063 0.16947 0.31776 0 0.64399-0.0254zm-0.11439-0.91938q0-0.38979-0.1271-0.55079-0.12287-0.161-0.40673-0.161-0.27963 0-0.42368 0.16948-0.13981 0.16947-0.14405 0.54231z"/>
   <path d="m66.529 109v-2.1184h0.31352v0.2881q0.3686-0.25421 0.77533-0.33471v0.322q-0.17794 0.0339-0.37284 0.10592-0.19066 0.072-0.29234 0.1271l-0.10592 0.0551v1.5549z"/>
   <path d="m69.792 106.31q-0.63552 0-0.63552 0.47876 0 0.26691 0.14405 0.3686 0.14829 0.0974 0.59315 0.19913 0.4491 0.0974 0.63552 0.25844 0.18642 0.15676 0.18642 0.52112 0 0.90244-0.93633 0.90244-0.30929 0-0.77533-0.072l-0.15252-0.0212 0.03389-0.27115q0.5762 0.0763 0.87702 0.0763 0.62704 0 0.62704-0.58891 0-0.23726-0.13981-0.33895-0.13558-0.10592-0.51265-0.17794-0.4957-0.10592-0.70331-0.27116-0.2076-0.16947-0.2076-0.56349 0-0.78804 0.9448-0.78804 0.30929 0 0.74144 0.0635l0.14405 0.0212-0.02966 0.27539q-0.58891-0.072-0.83465-0.072z"/>
   <path d="m72.283 107.16h-0.67365v1.0126q0 0.36436 0.05084 0.47876 0.05508 0.11439 0.25421 0.11439l0.37708-0.0254 0.02118 0.26268q-0.28386 0.0466-0.43215 0.0466-0.33047 0-0.45757-0.16099-0.1271-0.161-0.1271-0.61434v-1.1143h-0.30081v-0.27539h0.30081v-0.64823h0.31352v0.64823h0.67365z"/>
   <path d="m72.673 109v-2.1184h0.31352v0.2881q0.3686-0.25421 0.77533-0.33471v0.322q-0.17794 0.0339-0.37284 0.10592-0.19066 0.072-0.29234 0.1271l-0.10592 0.0551v1.5549z"/>
   <path d="m73.884 109v-0.48299h0.34742v0.48299z"/>
   <path d="m77.096 106.2v2.7963h-0.32623v-2.4319l-0.72025 0.47452-0.14829-0.24573 0.88973-0.59315z"/>
   <path d="m79.901 109h-1.7879v-0.27539l0.8177-0.86007q0.21184-0.22031 0.30929-0.33471 0.09745-0.11439 0.17371-0.27115 0.0805-0.15676 0.0805-0.31352 0-0.27116-0.14829-0.38131-0.14829-0.11016-0.46181-0.11016-0.27539 0-0.61434 0.072l-0.11016 0.0212-0.02542-0.27116q0.4025-0.11439 0.83041-0.11439t0.64399 0.18218q0.22031 0.17795 0.22031 0.56773 0 0.29658-0.13134 0.51689-0.13134 0.22031-0.45334 0.5296l-0.74568 0.75839h1.4024z"/>
   <path d="m39.897 111.45q0.34742 0 0.56349 0.13134 0.45757 0.27116 0.45757 1.3558 0 0.76686-0.25421 1.0846-0.25421 0.31353-0.76262 0.31353t-0.76686-0.30929q-0.25421-0.31352-0.25421-1.11 0-0.80075 0.24997-1.1312 0.25421-0.33471 0.76686-0.33471zm0.0042 0.29234q-0.2415 0-0.38131 0.10168-0.30081 0.20761-0.30081 1.0973 0 0.62705 0.16524 0.86854 0.16524 0.23726 0.51689 0.23726 0.35165 0 0.51689-0.24149 0.16523-0.2415 0.16523-0.89397 0-0.6567-0.161-0.91091-0.15676-0.25844-0.52112-0.25844z"/>
   <path d="m42.736 111.5v2.7963h-0.32623v-2.4319l-0.72025 0.47452-0.14829-0.24573 0.88973-0.59315z"/>
   <path d="m44.642 111.45q0.34742 0 0.56349 0.13134 0.45757 0.27116 0.45757 1.3558 0 0.76686-0.25421 1.0846-0.25421 0.31353-0.76262 0.31353t-0.76686-0.30929q-0.25421-0.31352-0.25421-1.11 0-0.80075 0.24997-1.1312 0.25421-0.33471 0.76686-0.33471zm0.0042 0.29234q-0.2415 0-0.38131 0.10168-0.30081 0.20761-0.30081 1.0973 0 0.62705 0.16523 0.86854 0.16524 0.23726 0.51689 0.23726 0.35165 0 0.51689-0.24149 0.16524-0.2415 0.16524-0.89397 0-0.6567-0.161-0.91091-0.15676-0.25844-0.52112-0.25844z"/>
   <path d="m47.875 111.8q-0.38131-0.0508-0.74144-0.0508t-0.55502 0.24997q-0.19489 0.24997-0.19489 0.71602l0.10592-0.0424q0.10592-0.0381 0.27963-0.0805 0.17795-0.0424 0.31352-0.0424 0.94057 0 0.94057 0.86855 0 0.44486-0.25844 0.68636-0.25421 0.23726-0.72025 0.23726-0.99988 0-0.99988-1.4532 0-0.73297 0.28386-1.0804 0.2881-0.34742 0.80923-0.34742 0.34318 0 0.65247 0.0508l0.11439 0.0212zm-0.81346 1.0422q-0.14405 0-0.31776 0.0424-0.16947 0.0381-0.26692 0.0763l-0.09745 0.0424q0.0042 0.48299 0.161 0.76686 0.161 0.28386 0.48723 0.28386 0.32623 0 0.49147-0.16099 0.16524-0.16524 0.16524-0.46181 0-0.30082-0.16524-0.44487-0.161-0.14405-0.45757-0.14405z"/>
   <path d="m49.252 114.05q0.76686 0 0.7711-0.97446-0.42368 0.161-0.72873 0.161-0.91515 0-0.91515-0.85159 0-0.42792 0.26268-0.67789t0.70754-0.24997q0.51265 0 0.76262 0.38131 0.24997 0.37707 0.24997 1.1143 0 0.73296-0.28386 1.0592-0.27963 0.32624-0.82618 0.32624-0.31776 0-0.6567-0.0593l-0.11016-0.0169 0.02966-0.26268q0.38131 0.0508 0.7372 0.0508zm0.06779-1.1016q0.25844 0 0.59739-0.11439l0.11016-0.0381q-0.01271-1.0507-0.67789-1.0507-0.29658 0-0.46605 0.17371-0.16524 0.16947-0.16524 0.46605 0 0.56349 0.60162 0.56349z"/>
   <path d="m52.917 114.3h-1.0465v-2.9319h1.0465q0.71602 0 0.94904 0.56773 0.13558 0.32623 0.13558 0.85583 0 1.1058-0.55078 1.3939-0.22031 0.1144-0.53384 0.1144zm0.74991-1.5083q0-0.84312-0.37708-1.0507-0.15252-0.0847-0.37284-0.0847h-0.72025v2.3557h0.72025q0.74991 0 0.74991-1.2202z"/>
   <path d="m54.548 114.3v-2.1184h0.31352v0.2881q0.3686-0.2542 0.77533-0.3347v0.32199q-0.17794 0.0339-0.37284 0.10592-0.19066 0.072-0.29234 0.12711l-0.10592 0.0551v1.5549z"/>
   <path d="m57.412 114.03 0.12287-0.0127 0.0085 0.24997q-0.48299 0.0678-0.82617 0.0678-0.45757 0-0.64823-0.26269-0.19066-0.26691-0.19066-0.82617 0-1.1143 0.88549-1.1143 0.42792 0 0.63976 0.2415 0.21184 0.23726 0.21184 0.74991l-0.01695 0.2415h-1.3981q0 0.35165 0.1271 0.52113 0.1271 0.16947 0.44063 0.16947 0.31776 0 0.64399-0.0254zm-0.11439-0.91939q0-0.38978-0.1271-0.55078-0.12287-0.161-0.40673-0.161-0.27963 0-0.42368 0.16947-0.13981 0.16948-0.14405 0.54231z"/>
   <path d="m58.776 112.42q-0.46181 0-0.46181 0.322 0 0.14828 0.10592 0.21184 0.10592 0.0593 0.48299 0.1271 0.37707 0.0636 0.53384 0.18218 0.15676 0.11863 0.15676 0.44486 0 0.32624-0.21184 0.47876-0.2076 0.15253-0.6101 0.15253-0.26268 0-0.61857-0.0593l-0.1271-0.0212 0.01695-0.27539q0.483 0.072 0.72873 0.072 0.24573 0 0.37284-0.0763 0.13134-0.0805 0.13134-0.26268 0-0.18642-0.11016-0.24997-0.11016-0.0678-0.48299-0.12711-0.37284-0.0593-0.5296-0.17371-0.15676-0.11439-0.15676-0.42367 0-0.30929 0.21608-0.45758 0.22031-0.14829 0.54655-0.14829 0.25844 0 0.64823 0.0593l0.11863 0.0212-0.0085 0.27116q-0.47028-0.0678-0.74144-0.0678z"/>
   <path d="m61.708 111.25v3.042h-0.31352v-0.14405q-0.32623 0.18642-0.64399 0.18642-0.16947 0-0.29658-0.0424t-0.23726-0.15253q-0.22879-0.22878-0.22879-0.84312 0-0.61857 0.20337-0.88972 0.2076-0.2754 0.68212-0.2754 0.24573 0 0.52112 0.0551v-0.93633zm-1.2456 2.6607q0.06779 0.0805 0.14405 0.11015 0.07626 0.0297 0.19489 0.0297 0.12287 0 0.27115-0.0381 0.15252-0.0424 0.23726-0.0805l0.08474-0.0381v-1.4363q-0.27115-0.0508-0.50418-0.0508-0.322 0-0.4491 0.2076-0.1271 0.20336-0.1271 0.63552 0 0.49147 0.14829 0.66094z"/>
   <path d="m63.763 114.03 0.12287-0.0127 0.0085 0.24997q-0.48299 0.0678-0.82617 0.0678-0.45757 0-0.64823-0.26269-0.19066-0.26691-0.19066-0.82617 0-1.1143 0.88549-1.1143 0.42792 0 0.63976 0.2415 0.21184 0.23726 0.21184 0.74991l-0.01695 0.2415h-1.3982q0 0.35165 0.1271 0.52113 0.1271 0.16947 0.44063 0.16947 0.31776 0 0.64399-0.0254zm-0.11439-0.91939q0-0.38978-0.1271-0.55078-0.12287-0.161-0.40673-0.161-0.27963 0-0.42368 0.16947-0.13981 0.16948-0.14405 0.54231z"/>
   <path d="m64.78 114.3h-0.31776v-2.1184h0.31352v0.14829q0.34318-0.19066 0.6567-0.19066 0.42368 0 0.56773 0.22879 0.14829 0.22879 0.14829 0.81347v1.1185h-0.31352v-1.11q0-0.44063-0.08897-0.60163-0.08474-0.16523-0.3686-0.16523-0.13558 0-0.2881 0.0424-0.14829 0.0381-0.22879 0.0763l-0.0805 0.0381z"/>
  </g>
 </g>
</svg>
